<svg xmlns="http://www.w3.org/2000/svg" width="240" height="240" viewBox="0 0 240 240">
  <rect width="240" height="240" rx="120" fill="#fff9ea"/>
  <circle cx="120" cy="112" r="52" fill="#1d1d1d" opacity=".08"/>
  <circle cx="120" cy="110" r="46" fill="#fff"/>
  <path d="M76 104c8-30 32-50 62-50 30 0 50 14 56 40-8 10-20 16-36 16-18 0-30-10-46-10-14 0-24 6-36 16Z" fill="#1d1d1d" opacity=".9"/>
  <circle cx="104" cy="118" r="5" fill="#1d1d1d" opacity=".85"/>
  <circle cx="136" cy="118" r="5" fill="#1d1d1d" opacity=".85"/>
  <path d="M110 140c8 6 14 6 22 0" stroke="#1d1d1d" stroke-width="6" stroke-linecap="round" opacity=".75"/>
  <path d="M66 220c10-42 42-60 54-60s44 18 54 60" fill="#ffe100" opacity=".7"/>
</svg>
