<svg xmlns="http://www.w3.org/2000/svg" width="64" height="64" viewBox="0 0 64 64">
  <defs>
    <linearGradient id="g" x1="0" y1="0" x2="1" y2="1">
      <stop offset="0" stop-color="#ffe100"/>
      <stop offset="1" stop-color="#e9a209"/>
    </linearGradient>
  </defs>
  <rect width="64" height="64" rx="14" fill="url(#g)"/>
  <path fill="#1d1d1d" d="M21 18a3 3 0 0 1 3 3v12a8 8 0 0 1-2.6 5.9L19 41.2V46a3 3 0 1 1-6 0v-6.1a3 3 0 0 1 1.1-2.3l3-2.5A2 2 0 0 0 18 33V21a3 3 0 0 1 3-3Zm22 0a3 3 0 0 1 3 3v25a3 3 0 1 1-6 0v-9h-4v9a3 3 0 1 1-6 0V33c0-2.1.8-4.1 2.2-5.7l4.3-4.7A3 3 0 0 1 43 18Z"/>
</svg>
